<svg width="1024" height="1024" viewBox="0 0 1024 1024" fill="none" xmlns="http://www.w3.org/2000/svg">
<circle cx="512" cy="512" r="400" fill="#FED000"/>
<path d="M335.086 306.205C368.479 306.205 401.873 306.205 436.278 306.205C447.743 343.465 447.743 343.465 451.127 354.817C452.686 360.024 454.294 365.216 455.899 370.409C456.203 371.391 456.506 372.374 456.819 373.386C458.065 377.417 459.312 381.449 460.561 385.479C466.568 404.858 466.568 404.858 469.017 413.939C470.773 420.436 472.848 426.797 475.008 433.171C478.225 442.691 481.148 452.299 484.076 461.911C484.367 462.863 484.658 463.815 484.958 464.795C488.876 477.616 492.735 490.451 496.387 503.349C497.938 508.798 499.587 514.202 501.364 519.581C501.556 520.168 501.749 520.755 501.947 521.36C502.743 524.153 502.743 524.153 504.337 526.5C504.619 525.58 504.9 524.66 505.19 523.712C508.662 512.448 508.662 512.448 510.549 507.526C512.204 503.09 513.485 498.587 514.758 494.031C517.932 482.802 521.372 471.659 524.822 460.512C525.427 458.552 526.032 456.591 526.637 454.63C528.995 446.989 531.354 439.349 533.721 431.711C539.184 414.058 544.482 396.356 549.788 378.656C551.138 374.154 552.488 369.653 553.84 365.152C560.977 341.425 560.977 341.425 567.936 317.645C568.15 316.901 568.365 316.158 568.586 315.391C568.851 314.467 568.851 314.467 569.121 313.523C569.863 311.068 570.689 308.638 571.5 306.205C602.529 306.205 633.559 306.205 665.528 306.205C664.877 310.111 664.282 312.86 662.894 316.43C662.527 317.384 662.16 318.339 661.782 319.322C661.171 320.891 661.171 320.891 660.547 322.492C659.639 324.849 658.736 327.207 657.833 329.565C657.59 330.197 657.347 330.829 657.097 331.48C654.008 339.544 651.013 347.642 648.01 355.738C644.196 366.011 640.375 376.281 636.519 386.538C636.19 387.414 635.861 388.289 635.522 389.191C634.853 390.97 634.184 392.75 633.515 394.529C625.244 416.53 617.122 438.585 609.044 460.657C607.502 464.868 605.958 469.077 604.414 473.287C603.665 475.329 602.917 477.372 602.168 479.415C599.691 486.174 597.207 492.931 594.72 499.687C588.017 517.899 581.338 536.12 574.746 554.373C574.438 555.225 574.13 556.078 573.813 556.956C573.503 557.815 573.193 558.673 572.874 559.557C572.24 561.313 571.606 563.069 570.972 564.825C570.654 565.704 570.337 566.583 570.01 567.489C563.818 584.629 557.586 601.755 551.345 618.878C549.864 622.942 548.385 627.006 546.908 631.071C514.06 721.428 514.06 721.428 485.307 735.377C467.324 743.131 449.312 745.169 429.856 745.091C428.74 745.09 427.624 745.09 426.475 745.089C422.355 745.084 418.235 745.071 414.115 745.06C404.88 745.041 395.645 745.023 386.13 745.004C386.13 722.249 386.13 699.494 386.13 676.05C402.641 675.826 402.641 675.826 407.746 675.783C421.737 675.564 436.947 674.172 447.962 664.608C455.264 656.977 459.102 646.027 458.981 635.52C458.368 630.74 456.41 626.346 454.614 621.906C453.548 619.27 452.513 616.622 451.476 613.975C450.907 612.524 450.337 611.073 449.765 609.624C446.445 601.193 443.276 592.706 440.106 584.218C439.065 581.429 438.021 578.641 436.977 575.853C435.595 572.165 434.214 568.476 432.834 564.787C414.761 516.488 396.602 468.221 378.236 420.033C377.138 417.151 376.04 414.269 374.943 411.387C366.083 388.122 357.183 364.872 348.22 341.646C347.574 339.972 346.928 338.297 346.282 336.623C345.077 333.502 343.872 330.381 342.666 327.26C342.314 326.346 341.961 325.432 341.597 324.491C339.691 319.561 337.747 314.652 335.729 309.768C335.086 307.996 335.086 307.996 335.086 306.205Z" fill="#FEFEFD"/>
<path d="M693.453 514.719C707.553 514.348 720.533 518.393 731.292 527.731C738.052 534.292 742.76 540.959 746.124 549.783C746.411 550.536 746.699 551.289 746.995 552.064C751.489 565.86 748.704 579.161 742.822 592.04C736.175 604.651 725.494 612.63 712.154 617.027C700.81 620.394 686.847 620.671 676.015 615.582C675.214 615.146 674.413 614.709 673.588 614.26C672.414 613.661 672.414 613.661 671.216 613.05C658.846 606.236 650.052 595.827 645.551 582.445C642.341 570.966 642.454 557.012 647.618 546.201C647.998 545.37 648.378 544.539 648.769 543.683C655.122 530.941 665.657 522.191 678.849 517.097C683.75 515.532 688.35 514.969 693.453 514.719Z" fill="#EC1D2B"/>
</svg>
